<?xml version="1.0" standalone="no"?>
<!DOCTYPE svg PUBLIC "-//W3C//DTD SVG 20010904//EN"
 "http://www.w3.org/TR/2001/REC-SVG-20010904/DTD/svg10.dtd">
<svg version="1.0" xmlns="http://www.w3.org/2000/svg"
 width="500.000000pt" height="500.000000pt" viewBox="0 0 500.000000 500.000000"
 preserveAspectRatio="xMidYMid meet">
<metadata>
Created by potrace 1.14, written by Peter Selinger 2001-2017
</metadata>
<g transform="translate(0.000000,500.000000) scale(0.100000,-0.100000)"
fill="#000000" stroke="none">
<path d="M2254 4388 c-76 -91 -73 -218 6 -218 22 0 19 -6 -31 -57 -115 -120
-169 -209 -169 -281 0 -53 29 -127 86 -217 101 -159 127 -242 97 -315 -34 -83
-100 -115 -177 -86 -60 23 -111 76 -198 207 -82 122 -159 204 -223 238 -63 33
-96 27 -114 -22 -9 -23 -5 -41 20 -104 73 -183 31 -319 -216 -698 -124 -191
-233 -393 -344 -638 -75 -164 -144 -409 -162 -568 -11 -100 -10 -126 5 -214
26 -151 111 -347 232 -536 23 -37 62 -105 87 -153 72 -136 135 -226 206 -296
159 -157 497 -341 740 -403 75 -19 112 -22 291 -21 218 1 322 13 495 59 282
74 478 162 700 310 228 153 396 331 490 520 77 155 89 227 82 460 -6 201 -12
233 -115 640 -33 132 -73 301 -87 375 -28 138 -60 250 -146 500 -27 80 -60
188 -73 240 -43 164 -53 198 -85 275 -50 120 -99 195 -180 275 -92 92 -162
130 -376 205 -246 86 -358 146 -425 228 -33 41 -59 121 -60 183 0 36 -6 59
-21 78 -37 47 -92 31 -169 -48 -24 -25 -47 -46 -51 -46 -4 0 -5 16 -2 34 7 45
-1 76 -27 104 -29 31 -53 28 -86 -10z"/>
<path d="M1727 3943 c-13 -12 -7 -41 10 -47 9 -4 23 0 31 8 13 12 13 18 2 30
-13 17 -32 21 -43 9z"/>
</g>
</svg>
